<?xml version="1.0" standalone="no"?>
<!DOCTYPE svg PUBLIC "-//W3C//DTD SVG 20010904//EN"
 "http://www.w3.org/TR/2001/REC-SVG-20010904/DTD/svg10.dtd">
<svg version="1.0" xmlns="http://www.w3.org/2000/svg"
 width="512.000000pt" height="388.000000pt" viewBox="0 0 512.000000 388.000000"
 preserveAspectRatio="xMidYMid meet">

<g transform="translate(0.000000,388.000000) scale(0.100000,-0.100000)"
fill="#000000" stroke="none">
<path d="M320 3850 c0 -51 -39 -137 -83 -183 -50 -51 -121 -88 -183 -95 l-44
-5 0 -153 0 -154 38 0 c52 0 149 25 216 54 l56 25 0 -1275 0 -1274 -155 0
-155 0 0 -155 0 -155 465 0 465 0 0 155 0 155 -155 0 -155 0 0 1545 0 1545
-155 0 -155 0 0 -30z"/>
<path d="M1745 3864 c-180 -39 -344 -165 -424 -328 -61 -124 -63 -144 -70
-581 -7 -451 -5 -437 -86 -524 -48 -51 -110 -84 -183 -96 l-43 -7 3 -151 3
-150 55 -11 c99 -20 173 -76 223 -170 21 -40 22 -53 28 -446 6 -404 6 -405 32
-485 15 -44 40 -103 56 -130 93 -162 283 -285 466 -302 l65 -6 0 157 0 156
-28 0 c-89 0 -201 80 -249 178 l-28 57 -6 410 c-4 292 -9 422 -18 450 -24 72
-79 172 -131 234 l-51 62 46 51 c56 63 90 119 124 207 25 66 25 67 31 476 l5
410 33 68 c24 49 48 79 83 107 47 37 128 70 171 70 17 0 18 12 18 155 l0 155
-27 -1 c-16 0 -59 -7 -98 -15z"/>
<path d="M2157 3663 c-4 -3 -7 -53 -7 -110 0 -96 1 -103 20 -103 17 0 20 7 20
47 l0 47 43 -48 c32 -37 48 -47 66 -45 23 4 22 6 -23 55 -25 29 -46 56 -46 61
0 5 18 27 40 48 22 21 40 43 40 47 0 21 -38 4 -77 -34 l-43 -42 0 42 c0 40
-14 55 -33 35z"/>
<path d="M2743 3656 c-52 -14 -81 -40 -89 -82 -7 -41 11 -101 36 -114 31 -16
78 -12 100 10 54 54 -4 147 -75 120 -16 -6 -25 -6 -25 0 0 12 34 30 57 30 26
0 54 23 45 36 -5 7 -19 7 -49 0z m21 -112 c20 -19 20 -28 2 -44 -20 -16 -56
-9 -70 13 -9 15 -7 21 8 33 25 18 41 18 60 -2z"/>
<path d="M3730 3655 c0 -36 81 -44 94 -9 9 24 -2 30 -26 15 -14 -9 -23 -10
-31 -2 -16 16 -37 14 -37 -4z"/>
<path d="M2528 3599 c-33 -18 -22 -38 17 -32 37 6 50 -11 15 -20 -11 -3 -20
-12 -20 -21 0 -9 8 -16 20 -16 11 0 20 -5 20 -10 0 -17 -27 -23 -48 -11 -23
12 -38 -9 -19 -28 15 -15 80 -14 95 1 15 15 16 54 2 63 -7 4 -7 13 0 25 8 15
6 24 -10 40 -22 22 -45 25 -72 9z"/>
<path d="M2868 3599 c-32 -18 -22 -38 15 -32 24 4 37 0 47 -13 14 -16 13 -17
-14 -10 -37 9 -76 -16 -76 -48 0 -34 20 -46 78 -45 l52 2 0 63 c0 54 -3 65
-22 78 -26 18 -55 20 -80 5z m57 -99 c0 -8 -10 -16 -22 -18 -22 -3 -32 16 -16
32 12 11 38 2 38 -14z"/>
<path d="M3035 3585 c-33 -32 -34 -83 -2 -113 35 -33 107 -28 107 8 0 15 -6
17 -39 13 -32 -4 -41 -2 -50 15 -21 40 11 69 63 56 20 -5 26 -2 26 10 0 18
-30 36 -60 36 -11 0 -32 -11 -45 -25z"/>
<path d="M3214 3598 c-47 -22 -56 -86 -19 -123 28 -29 85 -34 105 -10 18 22 6
30 -40 26 -35 -2 -40 0 -46 23 -4 16 -1 32 6 41 15 18 56 20 66 4 4 -8 10 -6
17 6 19 35 -40 57 -89 33z"/>
<path d="M2330 3595 c0 -2 12 -30 26 -62 24 -55 26 -86 9 -125 -5 -14 -2 -18
13 -18 15 0 28 21 61 100 22 55 41 103 41 105 0 3 -8 5 -18 5 -12 0 -25 -16
-38 -47 l-20 -48 -18 48 c-13 33 -24 47 -37 47 -11 0 -19 -2 -19 -5z"/>
<path d="M3350 3525 c0 -60 3 -75 15 -75 10 0 15 10 15 32 l0 32 33 -32 c18
-18 43 -32 57 -32 23 0 22 2 -15 40 l-39 40 34 35 c33 34 33 35 10 35 -13 0
-37 -12 -52 -27 l-28 -27 0 27 c0 17 -5 27 -15 27 -12 0 -15 -15 -15 -75z"/>
<path d="M3520 3525 c0 -65 2 -75 18 -75 9 0 33 22 52 47 l35 47 3 -47 c2 -33
7 -47 18 -47 11 0 14 16 14 75 0 65 -2 75 -17 75 -10 0 -35 -19 -55 -42 l-37
-43 -1 43 c0 30 -4 42 -15 42 -12 0 -15 -15 -15 -75z"/>
<path d="M3710 3525 c0 -66 2 -75 18 -75 11 0 33 21 53 48 l34 47 3 -47 c2
-34 7 -48 18 -48 11 0 14 16 14 75 0 91 -14 98 -72 33 l-37 -43 -1 43 c0 30
-4 42 -15 42 -12 0 -15 -15 -15 -75z"/>
<path d="M2708 3199 c-31 -18 -21 -36 18 -35 23 1 39 -4 42 -13 3 -9 -1 -11
-15 -7 -11 4 -32 2 -47 -3 -20 -8 -26 -17 -26 -40 0 -39 17 -50 78 -49 l52 0
0 59 c0 46 -5 64 -20 79 -22 22 -55 25 -82 9z m57 -99 c0 -18 -33 -26 -48 -11
-9 9 -8 14 3 21 21 14 45 8 45 -10z"/>
<path d="M3402 3198 c-33 -16 -21 -33 23 -33 24 0 40 -5 43 -14 3 -10 0 -12
-12 -8 -26 10 -65 -3 -77 -25 -8 -14 -6 -25 5 -43 14 -21 24 -24 71 -24 l55 1
0 59 c0 86 -41 119 -108 87z m63 -98 c0 -18 -33 -26 -48 -11 -9 9 -8 14 3 21
21 14 45 8 45 -10z"/>
<path d="M3583 3203 l-33 -4 0 -105 c0 -97 1 -104 20 -104 16 0 20 7 20 33 0
32 1 32 39 29 30 -3 44 1 60 17 30 30 28 85 -4 116 -23 24 -34 26 -102 18z
m81 -49 c19 -19 20 -25 3 -48 -9 -12 -23 -17 -42 -14 -25 2 -31 8 -33 32 -5
44 40 63 72 30z"/>
<path d="M3973 3200 c-47 -19 -58 -92 -20 -128 32 -30 81 -29 112 3 39 38 27
102 -22 124 -28 13 -40 13 -70 1z m67 -44 c6 -8 10 -25 8 -38 -4 -30 -56 -38
-74 -13 -30 41 33 90 66 51z"/>
<path d="M2150 3125 c0 -68 2 -75 20 -75 18 0 20 7 20 60 l0 60 30 0 c20 0 30
5 30 15 0 11 -12 15 -50 15 l-50 0 0 -75z"/>
<path d="M2270 3196 c0 -2 13 -34 30 -71 28 -62 29 -68 15 -95 -19 -37 -19
-40 3 -40 14 0 29 25 60 98 23 53 42 100 42 105 0 4 -8 7 -17 7 -12 0 -25 -16
-37 -47 l-20 -47 -19 47 c-14 32 -25 47 -38 47 -11 0 -19 -2 -19 -4z"/>
<path d="M2456 3139 c-4 -33 -10 -67 -13 -75 -3 -9 2 -14 15 -14 16 0 22 9 28
43 l7 42 19 -42 c10 -24 26 -43 34 -43 8 0 23 19 33 43 l18 42 7 -42 c6 -33
12 -43 27 -43 15 0 17 5 13 28 -3 15 -8 47 -12 72 -6 35 -12 46 -28 48 -15 2
-24 -8 -40 -45 l-20 -48 -22 48 c-14 32 -27 47 -40 47 -16 0 -21 -10 -26 -61z"/>
<path d="M2850 3125 c0 -68 2 -75 20 -75 16 0 20 7 20 30 0 28 3 30 35 30 32
0 35 -2 35 -30 0 -23 4 -30 20 -30 18 0 20 7 20 75 0 68 -2 75 -20 75 -15 0
-20 -7 -20 -25 0 -22 -4 -25 -35 -25 -31 0 -35 3 -35 25 0 18 -5 25 -20 25
-18 0 -20 -7 -20 -75z"/>
<path d="M3040 3125 c0 -68 2 -75 20 -75 11 0 34 19 55 46 l35 47 0 -47 c0
-39 3 -46 20 -46 18 0 20 7 20 75 0 71 -1 75 -22 75 -15 0 -33 -15 -53 -43
l-30 -42 -3 43 c-3 34 -7 42 -23 42 -17 0 -19 -7 -19 -75z"/>
<path d="M3220 3186 c0 -8 10 -16 23 -18 19 -3 22 -10 25 -60 2 -42 7 -58 17
-58 10 0 15 16 17 58 3 50 6 57 26 60 12 2 22 10 22 18 0 11 -15 14 -65 14
-50 0 -65 -3 -65 -14z"/>
<path d="M3750 3125 c0 -68 2 -75 20 -75 16 0 20 7 20 30 0 28 3 30 35 30 32
0 35 -2 35 -30 0 -20 5 -30 15 -30 12 0 15 15 15 75 0 60 -3 75 -15 75 -9 0
-15 -9 -15 -25 0 -22 -4 -25 -35 -25 -31 0 -35 3 -35 25 0 18 -5 25 -20 25
-18 0 -20 -7 -20 -75z"/>
<path d="M4120 3135 c0 -11 12 -15 50 -15 38 0 50 4 50 15 0 11 -12 15 -50 15
-38 0 -50 -4 -50 -15z"/>
<path d="M4412 2853 c2 -10 16 -22 31 -27 23 -8 31 -6 49 12 26 25 16 42 -14
23 -14 -9 -23 -10 -31 -2 -17 17 -39 13 -35 -6z"/>
<path d="M2355 2785 c-53 -52 -18 -135 57 -135 36 0 65 21 53 40 -4 7 -13 7
-27 -1 -15 -8 -27 -8 -47 2 -25 13 -24 14 32 17 53 3 57 5 57 28 0 32 -42 74
-75 74 -14 0 -37 -11 -50 -25z m83 -32 c2 -9 -8 -13 -32 -13 -34 0 -44 8 -29
24 11 11 56 2 61 -11z"/>
<path d="M2728 2799 c-32 -18 -22 -38 15 -32 23 3 37 0 47 -12 12 -15 11 -16
-13 -10 -36 9 -77 -17 -77 -49 0 -34 20 -46 78 -45 l52 2 0 63 c0 54 -3 65
-22 78 -26 18 -55 20 -80 5z m61 -88 c17 -11 5 -31 -19 -31 -21 0 -34 15 -25
30 8 12 25 13 44 1z"/>
<path d="M3045 2799 c-49 -28 -59 -78 -24 -123 44 -56 139 -20 139 54 0 55
-68 96 -115 69z m65 -43 c6 -8 10 -25 8 -38 -2 -19 -9 -23 -38 -23 -29 0 -36
4 -38 23 -4 28 14 52 38 52 10 0 23 -7 30 -14z"/>
<path d="M3710 2797 c-16 -8 -28 -26 -34 -50 -13 -53 15 -91 70 -95 46 -3 69
10 61 32 -5 13 -11 14 -30 5 -19 -8 -30 -8 -48 2 -23 13 -20 14 34 17 55 3 57
4 57 32 0 19 -9 35 -26 49 -31 24 -49 26 -84 8z m68 -44 c2 -9 -8 -13 -32 -13
-34 0 -44 8 -29 24 11 11 56 2 61 -11z"/>
<path d="M3895 2798 c-49 -26 -59 -77 -24 -122 16 -20 29 -26 59 -26 38 0 65
18 52 35 -4 6 -25 10 -47 10 -34 0 -40 3 -43 23 -6 43 45 71 76 40 9 -9 12 -7
12 10 0 35 -46 52 -85 30z"/>
<path d="M2150 2725 c0 -68 2 -75 20 -75 18 0 20 7 20 61 l0 60 33 -3 c32 -3
32 -4 35 -60 2 -43 7 -58 17 -58 12 0 15 16 15 75 l0 75 -70 0 -70 0 0 -75z"/>
<path d="M2537 2753 c-3 -26 -12 -52 -21 -58 -10 -8 -16 -27 -16 -49 0 -29 4
-36 20 -36 13 0 20 7 20 20 0 17 7 20 50 20 43 0 50 -3 50 -20 0 -13 7 -20 20
-20 17 0 20 7 20 40 0 29 -4 40 -15 40 -12 0 -15 13 -15 55 l0 55 -54 0 -53 0
-6 -47z m81 -26 c3 -35 2 -37 -28 -37 -28 0 -31 3 -25 23 4 12 9 30 12 40 9
33 38 15 41 -26z"/>
<path d="M2880 2725 c0 -59 3 -75 15 -75 10 0 15 15 17 58 3 56 3 57 36 60 20
2 32 9 32 18 0 10 -13 14 -50 14 l-50 0 0 -75z"/>
<path d="M3200 2725 c0 -59 3 -75 15 -75 10 0 15 15 17 58 3 56 3 57 36 60 20
2 32 9 32 18 0 10 -13 14 -50 14 l-50 0 0 -75z"/>
<path d="M3330 2725 c0 -66 2 -75 18 -75 11 0 33 21 53 48 l34 47 3 -47 c2
-34 7 -48 18 -48 11 0 14 16 14 75 0 67 -2 75 -19 75 -12 0 -32 -17 -48 -40
-15 -22 -31 -40 -35 -40 -5 0 -8 18 -8 40 0 29 -4 40 -15 40 -12 0 -15 -15
-15 -75z"/>
<path d="M3510 2765 c0 -39 36 -71 70 -62 17 4 20 0 20 -24 0 -22 5 -29 20
-29 18 0 20 7 20 75 0 67 -2 75 -19 75 -14 0 -21 -8 -23 -27 -2 -20 -9 -28
-23 -28 -14 0 -21 8 -23 28 -2 19 -9 27 -23 27 -15 0 -19 -7 -19 -35z"/>
<path d="M4020 2725 c0 -68 2 -75 20 -75 16 0 20 7 20 32 l0 32 33 -32 c18
-18 43 -32 57 -32 23 0 22 2 -15 40 l-39 40 34 35 c33 34 33 35 10 35 -13 0
-37 -12 -52 -27 l-28 -27 0 27 c0 20 -5 27 -20 27 -18 0 -20 -7 -20 -75z"/>
<path d="M4200 2725 c0 -65 2 -75 18 -75 9 0 31 19 47 43 l30 42 3 -42 c3 -35
7 -43 23 -43 17 0 19 7 19 75 0 65 -2 75 -17 75 -10 0 -35 -19 -55 -42 l-37
-43 -1 43 c0 30 -4 42 -15 42 -12 0 -15 -15 -15 -75z"/>
<path d="M4390 2725 c0 -65 2 -75 18 -75 9 0 31 19 47 43 l30 42 3 -42 c3 -35
7 -43 23 -43 17 0 19 7 19 75 0 65 -2 75 -17 75 -10 0 -35 -19 -55 -42 l-37
-43 -1 43 c0 30 -4 42 -15 42 -12 0 -15 -15 -15 -75z"/>
<path d="M2565 2398 c-49 -26 -59 -77 -24 -122 16 -20 29 -26 59 -26 38 0 65
18 52 35 -4 6 -25 10 -47 10 -34 0 -40 3 -43 23 -2 13 2 30 8 38 15 16 51 19
67 3 7 -7 12 -6 16 5 4 9 -2 21 -16 31 -25 18 -44 19 -72 3z"/>
<path d="M2150 2325 c0 -68 2 -75 19 -75 12 0 33 19 53 46 l33 47 3 -47 c3
-38 7 -46 23 -46 17 0 19 7 19 75 0 72 -1 75 -24 75 -16 0 -32 -13 -52 -42
l-29 -42 -3 42 c-3 34 -7 42 -23 42 -17 0 -19 -7 -19 -75z"/>
<path d="M2340 2325 c0 -68 2 -75 20 -75 16 0 20 7 20 30 0 28 3 30 35 30 32
0 35 -2 35 -30 0 -20 5 -30 15 -30 12 0 15 15 15 75 0 60 -3 75 -15 75 -9 0
-15 -9 -15 -25 0 -22 -4 -25 -35 -25 -31 0 -35 3 -35 25 0 18 -5 25 -20 25
-18 0 -20 -7 -20 -75z"/>
<path d="M2680 2386 c0 -8 10 -16 23 -18 19 -3 22 -10 25 -60 2 -42 7 -58 17
-58 10 0 15 16 17 58 3 50 6 57 26 60 12 2 22 10 22 18 0 11 -15 14 -65 14
-50 0 -65 -3 -65 -14z"/>
<path d="M2850 2325 c0 -65 2 -75 18 -75 9 0 31 19 47 43 l30 42 3 -42 c3 -35
7 -43 23 -43 17 0 19 7 19 75 0 65 -2 75 -17 75 -10 0 -35 -19 -55 -42 l-37
-43 -1 43 c0 30 -4 42 -15 42 -12 0 -15 -15 -15 -75z"/>
<path d="M3020 2386 c0 -8 10 -16 23 -18 19 -3 22 -10 25 -60 3 -50 6 -58 22
-58 18 0 20 7 20 60 0 53 2 60 20 60 11 0 20 7 20 15 0 12 -14 15 -65 15 -50
0 -65 -3 -65 -14z"/>
<path d="M3201 2330 c28 -66 29 -71 14 -106 -14 -34 -14 -35 7 -32 17 2 31 25
64 106 40 95 42 102 23 102 -15 0 -25 -12 -36 -40 -9 -22 -19 -40 -23 -40 -4
0 -15 18 -24 40 -11 28 -22 40 -35 40 -19 0 -18 -4 10 -70z"/>
<path d="M3350 2385 c0 -8 9 -15 20 -15 18 0 20 -7 20 -60 0 -53 2 -60 20 -60
16 0 19 8 22 58 3 50 6 57 26 60 12 2 22 10 22 18 0 11 -15 14 -65 14 -51 0
-65 -3 -65 -15z"/>
<path d="M2180 1735 c0 -104 2 -125 15 -125 12 0 15 13 15 57 l0 57 58 -57
c84 -84 113 -76 32 9 l-63 65 52 52 c55 57 60 67 34 67 -9 0 -38 -24 -64 -52
l-48 -53 -1 53 c0 39 -4 52 -15 52 -13 0 -15 -21 -15 -125z"/>
<path d="M4290 1847 c0 -39 65 -50 95 -17 24 26 12 37 -21 20 -20 -11 -29 -12
-44 -2 -25 15 -30 15 -30 -1z"/>
<path d="M2398 1760 c-27 -27 -30 -36 -25 -73 7 -51 36 -77 86 -77 38 0 61 14
61 37 0 10 -5 11 -19 3 -30 -15 -66 -12 -84 8 -10 10 -17 22 -17 25 0 4 32 7
70 7 l70 0 -6 28 c-8 35 -49 72 -80 72 -15 0 -38 -13 -56 -30z m83 -10 c34
-19 21 -30 -33 -30 l-53 1 24 19 c27 23 35 24 62 10z"/>
<path d="M2592 1721 c-15 -91 -15 -111 2 -111 9 0 16 18 21 56 8 63 14 61 40
-8 10 -27 24 -48 32 -48 8 0 23 23 35 50 11 28 24 50 28 50 4 0 10 -22 14 -50
5 -35 11 -50 22 -50 16 0 15 11 -5 135 -10 61 -33 56 -60 -12 -13 -32 -27 -62
-31 -66 -4 -4 -18 21 -31 55 -35 88 -53 87 -67 -1z"/>
<path d="M2869 1761 c-32 -33 -37 -67 -14 -110 16 -32 33 -41 79 -41 34 0 56
15 56 37 0 10 -5 11 -19 3 -30 -15 -66 -12 -84 8 -10 10 -17 22 -17 25 0 4 32
7 70 7 l70 0 -6 28 c-8 35 -49 72 -80 72 -15 0 -38 -12 -55 -29z m82 -11 c34
-19 21 -30 -33 -30 l-53 1 24 19 c27 23 35 24 62 10z"/>
<path d="M3057 1783 c-4 -3 -7 -60 -7 -125 0 -98 3 -118 15 -118 11 0 15 11
15 39 l0 38 48 -4 c41 -4 50 -2 72 22 36 38 34 99 -3 131 -30 26 -66 31 -98
14 -13 -7 -19 -7 -19 0 0 11 -13 13 -23 3z m123 -43 c11 -11 20 -29 20 -40 0
-27 -35 -60 -64 -60 -54 0 -78 74 -34 104 30 21 54 20 78 -4z"/>
<path d="M3307 1779 c-27 -16 -50 -68 -42 -98 19 -75 101 -97 150 -39 22 26
26 39 21 67 -10 63 -78 100 -129 70z m83 -39 c24 -24 25 -48 4 -78 -19 -28
-57 -29 -84 -2 -23 23 -24 33 -9 63 23 42 57 49 89 17z"/>
<path d="M3490 1700 l0 -90 44 0 c60 0 92 26 81 66 -5 16 -9 42 -9 59 -1 34
-32 55 -83 55 l-33 0 0 -90z m90 36 c0 -14 -21 -26 -46 -26 -8 0 -14 9 -14 20
0 16 7 20 30 20 19 0 30 -5 30 -14z m5 -76 c0 -10 -12 -16 -32 -18 -28 -3 -33
0 -33 18 0 18 5 21 33 18 20 -2 32 -8 32 -18z"/>
<path d="M3705 1778 c-33 -17 -45 -40 -45 -80 0 -51 35 -88 83 -88 42 0 77 23
61 40 -8 8 -14 9 -18 1 -11 -16 -62 -13 -80 5 -45 44 5 119 65 97 36 -14 47 0
17 21 -26 19 -55 20 -83 4z"/>
<path d="M3860 1701 c0 -74 3 -91 15 -91 11 0 15 11 15 36 l0 36 42 -36 c23
-20 51 -36 62 -36 17 0 12 9 -28 49 l-48 49 41 32 c23 19 41 37 41 42 0 19
-32 6 -69 -28 l-40 -35 -3 32 c-2 18 -9 34 -15 37 -10 3 -13 -19 -13 -87z"/>
<path d="M4050 1700 c0 -110 11 -115 72 -33 l43 57 3 -57 c2 -42 7 -57 17 -57
12 0 15 18 15 90 0 52 -4 90 -10 90 -5 0 -31 -27 -57 -60 l-48 -60 -3 60 c-2
44 -7 60 -17 60 -12 0 -15 -18 -15 -90z"/>
<path d="M4267 1783 c-4 -3 -7 -44 -7 -90 0 -74 2 -83 18 -83 11 0 36 25 63
61 l44 61 3 -61 c2 -45 7 -61 17 -61 12 0 15 18 15 90 0 69 -3 90 -13 90 -8 0
-36 -28 -63 -62 l-49 -63 -3 63 c-3 58 -9 72 -25 55z"/>
<path d="M4990 1376 c0 -37 72 -48 94 -14 14 23 2 32 -23 16 -17 -10 -25 -10
-41 0 -25 15 -30 15 -30 -2z"/>
<path d="M2177 1313 c-4 -3 -7 -44 -7 -90 0 -67 3 -83 15 -83 12 0 15 14 15
70 l0 70 40 0 c33 0 40 3 40 20 0 17 -7 20 -48 20 -27 0 -52 -3 -55 -7z"/>
<path d="M2339 1291 c-38 -38 -40 -91 -4 -126 53 -54 145 -16 145 59 0 48 -8
65 -41 81 -42 22 -67 18 -100 -14z m89 -17 c42 -29 20 -104 -30 -104 -54 0
-79 74 -36 104 12 9 27 16 33 16 6 0 21 -7 33 -16z"/>
<path d="M2549 1291 c-59 -59 -22 -150 62 -151 36 0 59 14 59 36 0 9 -7 10
-30 1 -60 -23 -113 38 -77 87 14 20 59 25 90 12 24 -12 23 20 -2 34 -35 18
-71 11 -102 -19z"/>
<path d="M2700 1317 c0 -2 16 -41 36 -86 35 -81 35 -83 20 -122 -15 -36 -15
-39 2 -39 12 0 30 31 65 118 26 64 47 120 47 125 0 16 -29 5 -35 -14 -4 -11
-16 -41 -27 -67 l-20 -45 -28 64 c-15 37 -34 65 -43 67 -10 2 -17 2 -17 -1z"/>
<path d="M2935 1273 c-8 -53 -30 -103 -46 -103 -15 0 -7 -73 9 -78 7 -2 12 6
12 22 0 25 1 26 70 26 68 0 70 -1 70 -25 0 -16 6 -25 15 -25 11 0 15 11 15 40
0 29 -4 40 -15 40 -12 0 -15 15 -15 75 l0 75 -54 0 -54 0 -7 -47z m85 -48 l0
-55 -41 0 c-35 0 -40 3 -34 18 4 9 9 34 12 55 5 33 9 37 34 37 28 0 29 -1 29
-55z"/>
<path d="M3142 1304 c-29 -20 -19 -37 13 -22 30 13 75 -3 75 -26 0 -11 -8 -13
-34 -9 -63 10 -103 -35 -72 -83 15 -21 23 -24 76 -23 l60 2 0 68 c0 56 -4 73
-20 89 -24 24 -67 26 -98 4z m72 -90 c9 -3 16 -12 16 -19 0 -25 -60 -34 -79
-12 -21 26 22 47 63 31z"/>
<path d="M3320 1195 c0 -104 2 -125 15 -125 11 0 15 11 15 39 l0 39 44 -5 c38
-5 48 -2 70 20 39 39 36 97 -5 131 -32 28 -77 34 -97 14 -9 -9 -12 -9 -12 0 0
7 -7 12 -15 12 -13 0 -15 -21 -15 -125z m118 79 c40 -28 18 -104 -30 -104 -40
0 -58 19 -58 60 0 56 41 77 88 44z"/>
<path d="M3559 1291 c-59 -60 -24 -151 59 -151 39 0 62 14 62 37 0 10 -5 11
-19 3 -49 -26 -101 1 -101 53 0 17 9 32 25 43 24 16 38 15 78 -1 24 -10 23 21
-2 35 -35 18 -71 11 -102 -19z"/>
<path d="M3715 1310 c-10 -16 4 -30 31 -30 23 0 24 -2 24 -70 0 -56 3 -70 15
-70 12 0 15 14 15 70 l0 70 30 0 c23 0 30 4 30 20 0 18 -7 20 -69 20 -39 0
-73 -4 -76 -10z"/>
<path d="M3908 1314 c-5 -4 -8 -45 -8 -91 l0 -83 48 0 c54 0 83 16 82 45 -2
71 -7 106 -17 116 -14 14 -95 24 -105 13z m86 -43 c8 -13 -20 -33 -41 -29 -10
2 -19 11 -21 21 -3 13 3 17 27 17 16 0 32 -4 35 -9z m4 -78 c-2 -12 -13 -18
-33 -18 -20 0 -31 6 -33 18 -3 14 4 17 33 17 29 0 36 -3 33 -17z"/>
<path d="M4107 1300 c-46 -36 -45 -111 2 -147 21 -16 84 -16 99 -1 20 20 15
40 -7 28 -41 -21 -91 -6 -91 27 0 9 18 13 65 13 57 0 65 2 65 19 0 11 -12 33
-26 50 -31 37 -69 41 -107 11z m74 -20 c32 -18 21 -30 -26 -30 -47 0 -58 12
-27 29 22 13 29 13 53 1z"/>
<path d="M4290 1231 c0 -74 3 -91 15 -91 10 0 15 11 15 35 0 35 0 35 45 35 45
0 45 0 45 -35 0 -24 5 -35 15 -35 12 0 15 17 15 90 0 73 -3 90 -15 90 -10 0
-15 -11 -15 -35 0 -35 0 -35 -44 -35 -43 0 -45 1 -48 32 -2 17 -9 33 -15 36
-10 3 -13 -19 -13 -87z"/>
<path d="M4500 1230 c0 -73 3 -90 15 -90 10 0 15 11 15 35 0 35 0 35 45 35 45
0 45 0 45 -35 0 -24 5 -35 15 -35 12 0 15 17 15 91 0 68 -3 90 -12 87 -7 -3
-14 -19 -16 -36 -3 -31 -5 -32 -48 -32 -44 0 -44 0 -44 35 0 24 -5 35 -15 35
-12 0 -15 -17 -15 -90z"/>
<path d="M4717 1313 c-4 -3 -7 -44 -7 -90 l0 -83 43 0 c54 0 87 22 87 59 0 34
-25 58 -65 63 -24 2 -31 8 -33 31 -3 26 -12 34 -25 20z m91 -110 c3 -17 -3
-24 -22 -29 -33 -8 -46 1 -46 32 0 22 4 25 33 22 24 -2 33 -8 35 -25z"/>
<path d="M4870 1230 c0 -73 3 -90 15 -90 12 0 15 17 15 90 0 73 -3 90 -15 90
-12 0 -15 -17 -15 -90z"/>
<path d="M4960 1230 c0 -111 10 -115 78 -29 l47 61 3 -61 c2 -46 7 -61 18 -61
12 0 14 15 12 87 -2 54 -7 88 -14 90 -7 2 -34 -24 -60 -58 l-49 -62 -3 62 c-2
45 -7 61 -17 61 -12 0 -15 -18 -15 -90z"/>
<path d="M2160 836 c0 -7 14 -46 32 -85 30 -69 31 -72 15 -111 -14 -37 -14
-40 2 -40 13 0 30 31 66 120 27 66 46 123 42 126 -11 11 -25 -6 -48 -61 -12
-30 -26 -55 -29 -55 -4 0 -18 27 -33 60 -24 56 -47 78 -47 46z"/>
<path d="M2370 761 c0 -74 3 -91 15 -91 10 0 15 11 15 35 0 35 0 35 45 35 45
0 45 0 45 -35 0 -24 5 -35 15 -35 12 0 15 17 15 90 0 73 -3 90 -15 90 -10 0
-15 -11 -15 -35 0 -35 0 -35 -44 -35 -43 0 -45 1 -48 32 -2 17 -9 33 -15 36
-10 3 -13 -19 -13 -87z"/>
<path d="M2580 760 c0 -111 10 -115 77 -27 l48 62 3 -62 c2 -48 7 -63 18 -63
12 0 14 15 12 87 -2 56 -7 88 -15 90 -7 3 -34 -24 -60 -58 l-48 -61 -3 61 c-2
45 -7 61 -17 61 -12 0 -15 -18 -15 -90z"/>
<path d="M2800 761 l0 -91 45 0 c32 0 51 6 65 20 22 22 26 45 10 55 -6 4 -8
21 -5 39 8 41 -9 57 -70 64 l-45 5 0 -92z m86 38 c8 -13 -13 -29 -38 -29 -11
0 -18 8 -18 20 0 15 7 20 24 20 14 0 28 -5 32 -11z m7 -66 c12 -11 -14 -33
-39 -33 -17 0 -24 6 -24 20 0 15 7 20 28 20 16 0 32 -3 35 -7z"/>
<path d="M2994 827 c-58 -50 -23 -157 52 -157 46 0 64 9 64 31 0 16 -3 18 -19
9 -41 -21 -91 -6 -91 27 0 9 18 13 65 13 72 0 78 7 50 59 -24 48 -77 55 -121
18z m87 -27 l24 -19 -52 -1 c-54 0 -67 11 -35 29 25 15 37 13 63 -9z"/>
<path d="M3180 723 c0 -103 2 -123 15 -123 11 0 15 11 15 38 0 37 1 38 30 34
47 -7 78 6 95 38 23 44 19 78 -14 111 -26 26 -35 29 -85 26 l-56 -2 0 -122z
m118 81 c44 -30 17 -104 -38 -104 -36 0 -50 17 -50 62 0 54 42 75 88 42z"/>
<path d="M3435 838 c-52 -30 -62 -102 -20 -143 27 -27 91 -35 113 -13 22 22
13 28 -28 22 -31 -5 -45 -3 -60 11 -49 45 -1 121 61 98 35 -14 52 3 24 24 -23
16 -63 16 -90 1z"/>
<path d="M3590 760 c0 -110 11 -115 72 -33 l43 57 3 -57 c2 -42 7 -57 17 -57
12 0 15 18 15 90 0 52 -4 90 -10 90 -5 0 -31 -27 -57 -60 l-48 -60 -3 60 c-2
44 -7 60 -17 60 -12 0 -15 -18 -15 -90z"/>
<path d="M3790 830 c0 -16 7 -20 30 -20 l30 0 0 -70 c0 -56 3 -70 15 -70 12 0
15 14 15 70 0 68 1 70 25 70 18 0 25 5 25 20 0 18 -7 20 -70 20 -63 0 -70 -2
-70 -20z"/>
<path d="M3997 830 c-34 -27 -44 -78 -23 -118 17 -33 33 -42 80 -42 34 0 56
15 56 37 0 10 -5 11 -19 3 -30 -15 -66 -12 -84 8 -10 10 -17 22 -17 25 0 4 32
7 71 7 l71 0 -6 28 c-8 34 -50 72 -80 72 -13 0 -35 -9 -49 -20z m74 -20 c32
-18 21 -30 -26 -30 -47 0 -58 12 -27 29 22 13 29 13 53 1z"/>
<path d="M4160 830 c0 -16 7 -20 30 -20 l30 0 0 -70 c0 -56 3 -70 15 -70 12 0
15 14 15 70 0 68 1 70 25 70 18 0 25 5 25 20 0 18 -7 20 -70 20 -63 0 -70 -2
-70 -20z"/>
<path d="M500 145 c0 -8 5 -15 10 -15 17 0 12 -87 -5 -94 -30 -11 -14 -26 30
-26 33 0 45 4 45 15 0 8 -7 15 -15 15 -12 0 -15 13 -15 60 0 57 -1 60 -25 60
-16 0 -25 -6 -25 -15z"/>
<path d="M590 141 c-16 -31 -12 -48 17 -71 20 -16 24 -23 15 -32 -18 -18 -14
-30 9 -26 12 2 31 22 47 50 23 40 24 50 14 72 -10 22 -18 26 -51 26 -30 0 -43
-5 -51 -19z m68 -28 c-2 -10 -10 -18 -18 -18 -8 0 -16 8 -18 18 -2 12 3 17 18
17 15 0 20 -5 18 -17z"/>
<path d="M710 145 c0 -9 9 -15 25 -15 22 0 24 -3 15 -19 -14 -26 -13 -28 11
-34 33 -9 17 -32 -20 -29 -37 3 -40 -12 -6 -34 23 -15 27 -15 50 0 29 19 35
73 10 83 -14 5 -14 8 0 29 8 13 15 26 15 29 0 3 -22 5 -50 5 -38 0 -50 -4 -50
-15z"/>
<path d="M844 152 c-31 -21 -22 -75 16 -87 18 -6 19 -8 4 -31 -16 -23 -15 -24
5 -24 13 0 30 14 46 40 27 43 32 79 13 98 -13 13 -67 16 -84 4z m56 -42 c0
-21 -24 -28 -35 -10 -8 14 3 30 21 30 8 0 14 -9 14 -20z"/>
<path d="M108 73 c56 -2 148 -2 205 0 56 1 10 3 -103 3 -113 0 -159 -2 -102
-3z"/>
</g>
</svg>
